<svg viewBox="0 0 6400 4800" xmlns="http://www.w3.org/2000/svg"><defs><path d="M255 209c19 4 32 17 35 33 2 19-6 36-20 44-17 8-36 5-48-6-13-14-16-33-9-47 9-17 26-25 42-24z" id="a"/><path d="M205 304c-23-22-30-54-20-80 14-29 42-45 69-44 32 4 57 26 64 53 6 31-7 61-30 76-29 15-61 12-83-5z" id="c"/><path d="M293 190c26 22 36 55 27 83-12 31-41 51-70 51-34-2-61-24-70-51-9-33 3-65 27-83 28-18 63-17 86 0z" id="b"/><path d="M204 279c-11-22-9-47 4-63 17-18 42-24 62-16 22 10 35 32 34 53-3 25-20 44-41 49-24 5-47-5-59-23z" id="d"/></defs><path fill="#F1F1F1F1" d="M0 0h6400v4800H0z"/><g fill="#111"><use x="-102" y="249" href="#a"/><use x="-27" y="749" href="#a"/><use x="-202" y="956" href="#b"/><use x="166" y="1418" href="#c"/><use x="-17" y="2347" href="#c"/><use x="-214" y="2884" href="#b"/><use x="-179" y="3217" href="#a"/><use x="-137" y="3979" href="#d"/><use x="-69" y="4480" href="#a"/><use x="-157" y="4900" href="#a"/><use x="406" y="-88" href="#d"/><use x="740" y="572" href="#c"/><use x="649" y="989" href="#b"/><use x="300" y="1576" href="#a"/><use x="413" y="1964" href="#d"/><use x="403" y="2427" href="#b"/><use x="613" y="3069" href="#a"/><use x="724" y="3748" href="#d"/><use x="390" y="4241" href="#b"/><use x="802" y="4883" href="#b"/><use x="1242" y="233" href="#d"/><use x="1137" y="646" href="#d"/><use x="1157" y="1015" href="#b"/><use x="1024" y="1463" href="#c"/><use x="1163" y="2047" href="#d"/><use x="940" y="2525" href="#a"/><use x="1133" y="3319" href="#c"/><use x="1088" y="3852" href="#d"/><use x="1010" y="4225" href="#c"/><use x="1280" y="5050" href="#b"/><use x="1470" y="166" href="#b"/><use x="1617" y="721" href="#d"/><use x="1412" y="999" href="#a"/><use x="1851" y="1866" href="#c"/><use x="1729" y="2266" href="#d"/><use x="1674" y="2720" href="#d"/><use x="1701" y="3322" href="#a"/><use x="1432" y="3641" href="#c"/><use x="1872" y="4376" href="#c"/><use x="1465" y="4571" href="#d"/><use x="2068" y="242" href="#c"/><use x="1993" y="448" href="#c"/><use x="2265" y="1026" href="#c"/><use x="2266" y="1466" href="#a"/><use x="2136" y="2099" href="#b"/><use x="2350" y="2897" href="#d"/><use x="1943" y="3440" href="#a"/><use x="2097" y="3726" href="#a"/><use x="2255" y="4227" href="#d"/><use x="1992" y="4711" href="#c"/><use x="2486" y="-215" href="#a"/><use x="2629" y="709" href="#c"/><use x="2800" y="1175" href="#a"/><use x="2843" y="1783" href="#b"/><use x="2461" y="2318" href="#d"/><use x="2627" y="2751" href="#b"/><use x="2846" y="3209" href="#d"/><use x="2930" y="3759" href="#a"/><use x="2698" y="4537" href="#b"/><use x="2694" y="4765" href="#a"/><use x="3299" y="120" href="#a"/><use x="3408" y="285" href="#b"/><use x="3185" y="899" href="#c"/><use x="3089" y="1465" href="#d"/><use x="3146" y="2324" href="#d"/><use x="3308" y="2839" href="#d"/><use x="3286" y="3164" href="#c"/><use x="3165" y="3595" href="#d"/><use x="3371" y="4408" href="#c"/><use x="3125" y="4625" href="#a"/><use x="3491" y="233" href="#c"/><use x="3741" y="368" href="#a"/><use x="3465" y="934" href="#c"/><use x="3702" y="1374" href="#d"/><use x="3769" y="2135" href="#a"/><use x="3897" y="2756" href="#b"/><use x="3504" y="3441" href="#d"/><use x="3529" y="3757" href="#b"/><use x="3641" y="4029" href="#c"/><use x="3626" y="4722" href="#d"/><use x="4289" y="-138" href="#d"/><use x="4016" y="421" href="#d"/><use x="4045" y="853" href="#c"/><use x="4051" y="1871" href="#b"/><use x="4322" y="2252" href="#c"/><use x="4450" y="2797" href="#a"/><use x="4488" y="3457" href="#c"/><use x="4308" y="3672" href="#d"/><use x="4060" y="4183" href="#a"/><use x="4393" y="4617" href="#c"/><use x="4617" y="88" href="#a"/><use x="4844" y="446" href="#a"/><use x="4722" y="1228" href="#a"/><use x="4548" y="1809" href="#a"/><use x="4795" y="2372" href="#d"/><use x="4753" y="2936" href="#c"/><use x="4564" y="3242" href="#c"/><use x="5033" y="3787" href="#a"/><use x="4943" y="4310" href="#b"/><use x="4801" y="4807" href="#a"/><use x="5144" y="-229" href="#b"/><use x="5413" y="586" href="#d"/><use x="5448" y="1157" href="#d"/><use x="5395" y="1845" href="#d"/><use x="5268" y="2385" href="#a"/><use x="5577" y="2856" href="#c"/><use x="5199" y="3106" href="#c"/><use x="5185" y="3880" href="#c"/><use x="5515" y="4412" href="#b"/><use x="5314" y="4882" href="#c"/><use x="5718" y="116" href="#c"/><use x="5711" y="501" href="#c"/><use x="5701" y="953" href="#a"/><use x="5711" y="1444" href="#a"/><use x="5981" y="2103" href="#c"/><use x="5650" y="2928" href="#b"/><use x="6107" y="3322" href="#a"/><use x="5747" y="3872" href="#b"/><use x="5674" y="4278" href="#d"/><use x="5999" y="4973" href="#c"/><use x="6582" y="-90" href="#c"/><use x="6504" y="399" href="#d"/><use x="6452" y="954" href="#a"/><use x="6602" y="1359" href="#a"/><use x="6139" y="2180" href="#d"/><use x="6167" y="2425" href="#d"/><use x="6395" y="3475" href="#a"/><use x="6170" y="3599" href="#a"/><use x="6492" y="4232" href="#b"/><use x="6122" y="4553" href="#b"/></g></svg>
